<?xml version="1.0" standalone="no"?>
<!DOCTYPE svg PUBLIC "-//W3C//DTD SVG 20010904//EN"
 "http://www.w3.org/TR/2001/REC-SVG-20010904/DTD/svg10.dtd">
<svg version="1.0" xmlns="http://www.w3.org/2000/svg"
 width="500.000000pt" height="500.000000pt" viewBox="0 0 500.000000 500.000000"
 preserveAspectRatio="xMidYMid meet">

<g transform="translate(0.000000,500.000000) scale(0.100000,-0.100000)"
fill="#000000" stroke="none">
<path d="M0 2500 l0 -2500 2500 0 2500 0 0 2500 0 2500 -2500 0 -2500 0 0
-2500z m2247 1353 c19 -35 33 -51 43 -48 113 33 372 31 505 -5 96 -26 239 -92
326 -150 86 -58 218 -193 275 -280 182 -282 221 -613 110 -925 -159 -445 -611
-729 -1078 -677 -424 48 -766 334 -888 743 -17 55 -32 83 -67 120 -36 39 -42
49 -27 49 17 0 19 6 16 50 -3 35 1 58 13 76 9 14 14 33 10 42 -3 8 -1 18 5 22
6 4 16 40 21 80 26 182 125 397 246 531 l34 37 -16 50 c-9 27 -15 63 -13 78 4
40 44 43 109 9 l50 -26 32 25 c18 13 46 31 64 40 25 12 35 26 43 59 19 73 41
139 62 184 l21 44 38 -37 c21 -21 51 -61 66 -91z m-987 -2400 l47 -133 -44 0
c-36 0 -46 4 -50 20 -4 17 -14 20 -54 20 -42 0 -49 -3 -49 -20 0 -17 -7 -20
-46 -20 -40 0 -45 2 -39 18 3 9 25 70 48 135 l41 118 50 -3 49 -3 47 -132z
m249 126 c32 -11 51 -35 51 -63 0 -21 -63 -22 -80 -1 -16 19 -60 20 -60 1 0
-15 10 -19 67 -31 77 -15 106 -77 60 -130 -53 -62 -217 -36 -217 35 0 17 7 20
39 20 26 0 41 -5 45 -16 4 -10 15 -14 33 -12 42 5 35 31 -10 40 -89 19 -126
63 -96 117 27 48 97 64 168 40z m341 -24 c0 -35 0 -35 -45 -35 l-45 0 0 -100
0 -100 -40 0 -40 0 0 100 0 100 -45 0 c-45 0 -45 0 -45 35 l0 35 130 0 130 0
0 -35z m255 10 c32 -31 33 -80 3 -112 l-22 -23 27 -55 27 -55 -48 0 c-47 0
-47 1 -69 50 -29 68 -53 68 -53 0 l0 -50 -40 0 -40 0 0 135 0 135 95 0 c88 0
98 -2 120 -25z m248 11 c18 -47 87 -245 87 -250 0 -3 -20 -6 -45 -6 -38 0 -45
3 -45 20 0 17 -7 20 -49 20 -40 0 -50 -3 -54 -20 -4 -16 -14 -20 -46 -20 -23
0 -41 3 -41 6 0 5 69 203 87 250 7 19 99 19 106 0z m207 -86 l0 -100 65 0 65
0 0 -35 0 -35 -105 0 -105 0 0 135 0 135 40 0 40 0 0 -100z m520 70 l0 -30
-70 0 c-63 0 -70 -2 -70 -20 0 -18 7 -20 60 -20 l60 0 0 -30 0 -30 -60 0 c-57
0 -60 -1 -60 -25 0 -24 2 -25 70 -25 l70 0 0 -30 0 -30 -110 0 -110 0 0 135 0
135 110 0 110 0 0 -30z m260 -7 c52 -58 49 -152 -6 -204 -22 -21 -37 -24 -115
-27 l-89 -4 0 137 0 137 91 -4 c88 -3 92 -4 119 -35z m290 19 c34 -17 64 -58
54 -74 -9 -14 -67 -9 -85 8 -22 20 -63 21 -84 4 -9 -7 -15 -29 -15 -55 0 -26
6 -48 15 -55 21 -17 64 -16 83 4 15 15 14 16 -16 16 -27 0 -32 4 -32 25 0 24
2 25 70 25 l70 0 0 -75 c0 -73 -1 -75 -24 -75 -13 0 -26 6 -28 12 -4 10 -10
10 -32 0 -37 -17 -91 -15 -132 4 -61 29 -82 135 -39 201 34 51 130 68 195 35z
m340 -12 l0 -29 -72 -3 c-60 -2 -73 -6 -76 -20 -3 -16 5 -18 62 -18 l66 0 0
-30 c0 -29 -1 -29 -62 -32 -55 -3 -63 -5 -63 -23 0 -18 8 -20 73 -23 l72 -3 0
-29 0 -30 -115 0 -115 0 0 135 0 135 115 0 115 0 0 -30z m-1923 -397 c3 -7 -8
-10 -28 -10 -38 2 -60 -23 -43 -50 17 -27 54 -29 54 -4 0 12 6 21 15 21 18 0
20 -31 3 -48 -32 -32 -108 2 -108 48 0 32 37 62 72 58 17 -2 33 -8 35 -15z
m245 -43 c19 -43 23 -60 13 -60 -7 0 -15 7 -19 15 -8 21 -56 19 -72 -2 -7 -10
-15 -15 -19 -12 -10 10 42 119 57 119 7 0 25 -27 40 -60z m202 25 c11 -19 22
-35 25 -35 4 0 15 16 25 35 30 54 46 46 46 -25 0 -47 -3 -60 -15 -60 -10 0
-15 10 -15 33 l-1 32 -17 -27 c-9 -16 -19 -28 -22 -28 -3 0 -13 12 -22 28
l-17 27 -1 -32 c0 -23 -5 -33 -15 -33 -12 0 -15 13 -15 60 0 70 15 79 44 25z
m336 25 c0 -5 -16 -10 -35 -10 -24 0 -35 -5 -35 -15 0 -10 10 -15 30 -15 17 0
30 -4 30 -10 0 -5 -13 -10 -30 -10 -20 0 -30 -5 -30 -15 0 -10 11 -15 35 -15
19 0 35 -4 35 -10 0 -5 -20 -10 -45 -10 l-45 0 0 60 0 60 45 0 c25 0 45 -4 45
-10z m220 -3 c0 -9 -10 -12 -31 -9 -23 3 -30 1 -27 -9 2 -7 15 -16 28 -19 13
-3 28 -13 33 -22 23 -35 -42 -65 -83 -38 -16 11 -9 13 32 10 40 -2 43 17 4 30
-39 12 -48 26 -34 53 11 21 78 25 78 4z"/>
<path d="M2131 3856 c-15 -16 -28 -52 -39 -108 -16 -77 -21 -88 -57 -119 -49
-42 -59 -53 -95 -108 l-29 -44 -11 29 c-24 67 -33 84 -48 96 -13 11 -14 11 -7
-2 4 -8 -3 -5 -17 8 -48 44 -49 28 -4 -91 32 -84 33 -88 16 -110 -27 -34 -68
-119 -101 -210 -43 -115 -117 -252 -165 -303 -22 -24 -38 -46 -36 -49 2 -2 -7
-18 -22 -35 -36 -43 -38 -82 -6 -137 17 -29 17 -31 2 -26 -13 5 -13 1 4 -18
12 -13 31 -44 41 -69 31 -69 63 -93 131 -98 48 -3 62 0 86 19 16 12 35 37 42
55 31 73 84 98 228 108 53 4 97 14 133 31 l54 24 -8 -137 c-9 -153 -8 -628 1
-678 6 -29 11 -33 71 -48 84 -21 94 -20 105 7 8 21 9 21 9 -5 1 -21 6 -28 21
-28 15 0 20 7 21 28 0 15 6 45 14 67 12 39 13 38 7 -29 l-5 -69 124 6 c68 3
132 8 141 12 19 8 41 73 69 210 19 91 25 280 12 359 -5 35 -8 28 -29 -75 -13
-62 -35 -147 -50 -189 -32 -91 -121 -270 -133 -270 -33 0 -24 267 12 415 58
231 74 502 42 671 -8 43 -13 79 -11 81 11 11 67 -237 84 -377 l8 -65 12 78 c7
43 12 106 13 140 1 54 2 58 10 32 20 -65 50 -218 58 -292 l7 -78 8 80 c17 159
-8 337 -63 460 -41 89 -23 74 23 -20 39 -81 75 -205 77 -270 1 -22 4 -53 8
-68 6 -27 7 -26 40 33 18 34 37 58 41 53 30 -30 63 -276 58 -425 -3 -102 -2
-106 15 -90 19 17 87 150 87 170 0 6 5 23 11 39 l11 28 25 -59 c26 -63 62
-212 63 -260 0 -29 0 -29 21 -10 38 34 89 111 96 145 5 25 8 29 13 15 4 -13
15 2 42 56 61 121 62 125 30 142 -15 8 -47 34 -70 59 l-44 45 44 -9 c57 -11
116 -1 128 22 19 35 12 46 -35 52 -25 4 -62 16 -84 26 -41 21 -91 74 -91 96 0
19 103 28 169 15 29 -5 55 -10 57 -10 2 0 4 18 4 40 0 34 -4 42 -32 56 -18 10
-84 30 -146 45 -105 26 -160 51 -189 87 -20 24 -16 32 17 32 52 0 133 -22 205
-55 86 -39 135 -50 135 -30 0 7 -9 16 -20 20 -11 3 -61 45 -112 91 -103 95
-192 144 -297 165 l-64 12 41 12 c41 12 127 58 136 73 2 4 -19 5 -47 3 -90 -6
-148 14 -240 83 -102 76 -145 97 -217 106 l-55 7 37 16 c77 35 213 16 284 -38
29 -22 32 -23 27 -5 -9 33 -87 96 -148 119 -78 30 -169 39 -257 28 -84 -10
-156 -4 -194 16 l-26 14 28 17 c15 10 59 24 98 31 l71 12 -45 13 c-31 8 -76
10 -145 6 -55 -4 -100 -8 -101 -9 -4 -5 26 -155 35 -179 16 -41 81 -101 160
-147 39 -23 102 -59 140 -81 93 -54 171 -142 226 -255 24 -49 47 -106 50 -125
4 -23 -13 5 -50 80 -50 100 -68 126 -140 196 -68 68 -99 90 -188 135 -59 29
-109 51 -111 48 -2 -2 2 -29 10 -59 17 -61 14 -226 -4 -270 l-10 -25 -10 25
c-8 23 -10 21 -21 -29 -26 -120 -90 -165 -190 -130 -28 10 -33 9 -51 -14 -28
-36 -123 -81 -154 -73 -13 3 -33 20 -44 37 l-20 32 -12 -39 c-7 -22 -26 -68
-43 -104 -22 -49 -31 -61 -36 -47 -6 15 -10 14 -37 -15 -17 -18 -38 -43 -46
-56 -15 -22 -15 -22 -21 18 -10 74 -67 129 -103 99 -12 -10 -15 -26 -12 -67 5
-52 4 -53 -9 -27 -8 15 -15 47 -16 72 -3 66 33 86 103 59 11 -5 32 16 70 70
30 41 82 102 117 134 56 53 59 57 28 44 -19 -8 -35 -12 -35 -8 0 3 15 35 32
71 28 56 34 62 39 41 5 -21 7 -19 19 17 7 22 22 57 32 79 11 21 25 66 32 98
l12 60 14 -43 c12 -37 14 -40 17 -19 2 14 8 51 14 82 l12 58 39 -40 c37 -36
131 -80 145 -66 3 3 -2 8 -11 12 -18 7 -96 101 -96 116 0 5 15 0 34 -11 53
-33 52 -25 -4 36 l-53 57 30 8 c52 14 68 42 67 118 -2 66 -32 160 -52 160 -5
0 -19 -11 -31 -24z m287 -263 c20 -3 78 2 127 11 50 9 113 16 140 16 l50 0
-66 -33 c-72 -37 -135 -82 -148 -106 -8 -14 1 -16 72 -16 101 0 160 -19 288
-91 52 -30 105 -54 117 -54 29 0 28 -16 0 -24 -35 -9 -129 -7 -166 3 -42 13
-41 -1 6 -37 60 -48 111 -69 207 -86 91 -17 166 -40 196 -60 12 -8 -8 -11 -85
-13 -106 -1 -181 -20 -181 -44 0 -36 195 -140 325 -172 l54 -14 -59 -23 c-62
-23 -152 -31 -192 -17 -37 13 -28 -9 23 -58 51 -50 145 -100 237 -125 57 -16
60 -18 34 -25 -15 -4 -54 -5 -86 -3 -100 7 -261 101 -261 152 0 27 -54 139
-76 157 -13 10 -16 9 -21 -10 -4 -17 -14 0 -38 73 -50 149 -142 272 -258 344
l-60 37 39 8 c21 5 60 6 87 2 26 -3 47 -4 47 -1 0 13 -137 47 -211 53 l-87 6
11 31 c5 17 18 42 27 56 l18 25 -50 -3 c-59 -5 -96 9 -134 49 l-28 30 32 -17
c18 -9 50 -18 70 -21z m-452 -180 c-17 -64 -54 -144 -55 -119 -1 11 -30 -24
-71 -87 -39 -59 -73 -107 -75 -107 -2 0 12 32 32 72 43 87 64 144 56 152 -4 3
4 29 17 56 25 53 38 62 20 14 -10 -26 -7 -25 37 19 26 26 49 47 49 47 1 0 -3
-21 -10 -47z m169 -633 c-6 -19 -4 -20 22 -14 15 4 39 11 52 16 21 7 22 7 11
-6 -15 -18 -103 -61 -144 -71 l-30 -6 25 20 c22 18 19 18 -46 -4 -38 -13 -76
-24 -83 -25 -9 0 169 98 196 109 2 0 0 -8 -3 -19z m345 -35 c-13 -55 -12 -241
1 -348 12 -98 1 -218 -27 -301 -19 -56 -27 -56 -13 -1 15 63 24 285 11 285 -6
0 -15 -12 -20 -27 l-10 -28 -7 29 c-12 46 2 235 24 312 31 109 61 168 41 79z
m-840 -34 c5 -11 9 -30 9 -43 -2 -22 -2 -22 -6 2 -3 14 -12 33 -20 43 -10 10
-11 17 -5 17 6 0 16 -9 22 -19z"/>
<path d="M2110 3383 c-24 -9 -50 -35 -50 -50 0 -11 5 -10 25 3 18 12 39 15 76
12 49 -5 50 -5 32 13 -20 20 -60 31 -83 22z"/>
<path d="M2096 3301 c-9 -10 -20 -35 -23 -55 l-6 -36 42 0 c33 0 49 7 78 33
35 33 36 34 17 55 -24 28 -84 30 -108 3z"/>
<path d="M2075 3077 c-36 -14 -62 -33 -90 -66 -18 -21 -14 -20 30 8 28 17 74
37 104 44 37 10 49 16 37 20 -24 9 -45 8 -81 -6z"/>
<path d="M1875 2952 c-66 -50 -97 -97 -93 -142 2 -19 7 -35 12 -35 5 0 31 38
58 85 27 47 59 95 70 107 33 35 9 27 -47 -15z"/>
<path d="M1157 1500 c-28 -82 -28 -80 4 -80 16 0 29 1 29 3 0 1 -7 22 -14 47
-8 27 -16 39 -19 30z"/>
<path d="M1970 1505 c0 -24 3 -26 38 -23 29 2 37 7 37 23 0 16 -8 21 -37 23
-35 3 -38 1 -38 -23z"/>
<path d="M2286 1476 c-3 -13 -9 -31 -12 -40 -5 -12 0 -16 24 -16 l29 0 -10 40
c-13 46 -22 51 -31 16z"/>
<path d="M3217 1523 c-4 -3 -7 -35 -7 -70 0 -72 13 -86 55 -59 35 23 36 97 3
120 -24 17 -41 20 -51 9z"/>
<path d="M2240 1130 c-9 -17 -8 -20 9 -20 14 0 18 5 14 20 -3 11 -7 20 -9 20
-2 0 -8 -9 -14 -20z"/>
</g>
</svg>
